<svg width="24" height="25" viewBox="0 0 24 25" fill="none" xmlns="http://www.w3.org/2000/svg">
<path d="M22.7819 0.78125H1.21936C0.700806 0.78125 0.28186 1.2002 0.28186 1.71875V23.2812C0.28186 23.7998 0.700806 24.2188 1.21936 24.2188H22.7819C23.3004 24.2188 23.7194 23.7998 23.7194 23.2812V1.71875C23.7194 1.2002 23.3004 0.78125 22.7819 0.78125ZM20.0748 7.62207H18.2028C16.735 7.62207 16.4508 8.31934 16.4508 9.34473V11.6035H19.9547L19.4977 15.1396H16.4508V24.2188H12.7975V15.1426H9.74182V11.6035H12.7975V8.99609C12.7975 5.96973 14.6461 4.32031 17.3473 4.32031C18.6422 4.32031 19.7526 4.41699 20.0778 4.46094V7.62207H20.0748Z" fill="black"/>
</svg>
