<svg width="30" height="31" viewBox="0 0 30 31" fill="none" xmlns="http://www.w3.org/2000/svg">
<path d="M23.01 5.69C22.654 5.69 22.306 5.79557 22.01 5.99336C21.714 6.19114 21.4833 6.47226 21.347 6.80117C21.2108 7.13008 21.1751 7.492 21.2446 7.84116C21.314 8.19033 21.4855 8.51106 21.7372 8.76279C21.9889 9.01453 22.3097 9.18596 22.6588 9.25541C23.008 9.32487 23.3699 9.28922 23.6988 9.15298C24.0277 9.01675 24.3089 8.78604 24.5066 8.49003C24.7044 8.19402 24.81 7.84601 24.81 7.49C24.81 7.01261 24.6204 6.55477 24.2828 6.21721C23.9452 5.87964 23.4874 5.69 23.01 5.69ZM29.91 9.32C29.8806 8.07548 29.6475 6.84418 29.22 5.675C28.8403 4.67382 28.2465 3.76769 27.48 3.02C26.7372 2.25114 25.8293 1.66126 24.825 1.295C23.659 0.854241 22.4263 0.615815 21.18 0.59C19.59 0.5 19.08 0.5 15 0.5C10.92 0.5 10.41 0.5 8.82 0.59C7.57373 0.615815 6.34101 0.854241 5.175 1.295C4.17297 1.66588 3.26604 2.25512 2.52 3.02C1.75114 3.76277 1.16126 4.67066 0.795 5.675C0.354241 6.84101 0.115815 8.07373 0.0899999 9.32C-7.88885e-08 10.91 0 11.42 0 15.5C0 19.58 -7.88885e-08 20.09 0.0899999 21.68C0.115815 22.9263 0.354241 24.159 0.795 25.325C1.16126 26.3293 1.75114 27.2372 2.52 27.98C3.26604 28.7449 4.17297 29.3341 5.175 29.705C6.34101 30.1458 7.57373 30.3842 8.82 30.41C10.41 30.5 10.92 30.5 15 30.5C19.08 30.5 19.59 30.5 21.18 30.41C22.4263 30.3842 23.659 30.1458 24.825 29.705C25.8293 29.3387 26.7372 28.7489 27.48 27.98C28.2484 27.2339 28.8425 26.3273 29.22 25.325C29.6475 24.1558 29.8806 22.9245 29.91 21.68C29.91 20.09 30 19.58 30 15.5C30 11.42 30 10.91 29.91 9.32ZM27.21 21.5C27.1994 22.4522 27.0269 23.3956 26.7 24.29C26.4605 24.9428 26.0758 25.5326 25.575 26.015C25.0882 26.5104 24.4996 26.8942 23.85 27.14C22.9556 27.4669 22.0122 27.6394 21.06 27.65C19.56 27.725 19.005 27.74 15.06 27.74C11.115 27.74 10.56 27.74 9.06 27.65C8.07128 27.6694 7.08668 27.5172 6.15 27.2C5.52928 26.941 4.96786 26.5582 4.5 26.075C4.00213 25.5931 3.62227 25.0028 3.39 24.35C3.02257 23.4431 2.8194 22.4781 2.79 21.5C2.79 20 2.7 19.445 2.7 15.5C2.7 11.555 2.7 11 2.79 9.5C2.79547 8.52647 2.97321 7.56158 3.315 6.65C3.57907 6.01687 3.9844 5.45249 4.5 5C4.95439 4.48279 5.51795 4.07292 6.15 3.8C7.0641 3.46922 8.02792 3.29675 9 3.29C10.5 3.29 11.055 3.2 15 3.2C18.945 3.2 19.5 3.2 21 3.29C21.9522 3.30063 22.8956 3.47309 23.79 3.8C24.4716 4.05298 25.0834 4.46427 25.575 5C26.0651 5.46203 26.4489 6.02502 26.7 6.65C27.0337 7.56332 27.2062 8.52764 27.21 9.5C27.285 11 27.3 11.555 27.3 15.5C27.3 19.445 27.285 20 27.21 21.5ZM15 7.805C13.4787 7.80797 11.9924 8.26179 10.729 9.10913C9.46552 9.95646 8.48157 11.1593 7.90145 12.5656C7.32133 13.972 7.17109 15.5187 7.46969 17.0104C7.7683 18.5021 8.50235 19.8718 9.57911 20.9465C10.6559 22.0211 12.027 22.7525 13.5193 23.0482C15.0116 23.3439 16.558 23.1907 17.9632 22.6078C19.3684 22.025 20.5693 21.0387 21.4142 19.7736C22.2591 18.5084 22.71 17.0213 22.71 15.5C22.712 14.4877 22.5138 13.4849 22.1269 12.5494C21.7399 11.614 21.1718 10.7642 20.4553 10.0491C19.7388 9.33394 18.8879 8.76752 17.9517 8.38239C17.0155 7.99727 16.0123 7.80104 15 7.805ZM15 20.495C14.0121 20.495 13.0464 20.202 12.2249 19.6532C11.4035 19.1043 10.7633 18.3242 10.3852 17.4115C10.0072 16.4988 9.90825 15.4945 10.101 14.5255C10.2937 13.5566 10.7694 12.6666 11.468 11.968C12.1666 11.2694 13.0566 10.7937 14.0255 10.601C14.9945 10.4082 15.9988 10.5072 16.9115 10.8852C17.8242 11.2633 18.6043 11.9035 19.1532 12.7249C19.702 13.5464 19.995 14.5121 19.995 15.5C19.995 16.156 19.8658 16.8055 19.6148 17.4115C19.3638 18.0175 18.9958 18.5682 18.532 19.032C18.0682 19.4958 17.5175 19.8638 16.9115 20.1148C16.3055 20.3658 15.656 20.495 15 20.495Z" fill="black"/>
</svg>
