<svg width="30" height="25" viewBox="0 0 30 25" fill="none" xmlns="http://www.w3.org/2000/svg">
<path d="M30 3.3509C28.8968 3.81954 27.6962 4.15682 26.4596 4.28818C27.7435 3.53706 28.7049 2.35043 29.1636 0.950902C27.9588 1.65666 26.6389 2.15155 25.2626 2.41362C24.6873 1.80804 23.9916 1.3256 23.2187 0.996372C22.4459 0.667145 21.6124 0.498183 20.7703 0.500015C17.3633 0.500015 14.6232 3.21954 14.6232 6.55682C14.6232 7.02545 14.6809 7.49409 14.7747 7.94498C9.67312 7.68226 5.12318 5.28226 2.09831 1.60771C1.54714 2.53474 1.25831 3.59028 1.26187 4.66451C1.26187 6.76628 2.34707 8.61954 4.00192 9.70948C3.0267 9.67166 2.0743 9.40769 1.22221 8.93906V9.01362C1.22221 11.9568 3.33494 14.3959 6.1507 14.9568C5.62201 15.092 5.07814 15.1612 4.53191 15.1627C4.13172 15.1627 3.75315 15.1237 3.37099 15.0704C4.14974 17.4704 6.4175 19.2136 9.11789 19.2704C7.00517 20.9 4.35885 21.8586 1.4854 21.8586C0.969836 21.8586 0.493931 21.8408 0 21.784C2.72563 23.5059 5.95962 24.5 9.44237 24.5C20.7487 24.5 26.9355 15.2763 26.9355 7.27043C26.9355 7.0077 26.9355 6.74498 26.9174 6.48226C28.1144 5.61954 29.1636 4.5509 30 3.3509Z" fill="black"/>
</svg>
