<svg width="30" height="25" viewBox="0 0 30 25" fill="none" xmlns="http://www.w3.org/2000/svg">
<path d="M23.7682 0H6.23182C4.57904 0 2.99395 0.77319 1.82526 2.14948C0.656565 3.52576 0 5.39241 0 7.33877V17.6628C0.000361607 19.6089 0.657086 21.4752 1.82574 22.8511C2.99439 24.227 4.57927 25 6.23182 25H23.7682C24.5866 25 25.3969 24.8102 26.153 24.4414C26.9091 24.0726 27.5961 23.532 28.1747 22.8505C28.7534 22.1691 29.2125 21.36 29.5256 20.4697C29.8388 19.5793 30 18.625 30 17.6612V7.33877C29.9996 5.39269 29.3429 3.52645 28.1743 2.15051C27.0056 0.774575 25.4207 -4.65907e-08 23.7682 0ZM19.5545 13.0026L11.3523 17.6098C11.3021 17.6389 11.2464 17.6524 11.1906 17.649C11.1347 17.6455 11.0806 17.6253 11.0332 17.5902C10.9859 17.555 10.947 17.5062 10.9203 17.4484C10.8935 17.3906 10.8798 17.3256 10.8805 17.2598V7.75629C10.8805 7.46724 11.1395 7.27936 11.3591 7.41104L19.5627 12.3057C19.6176 12.3385 19.6636 12.3888 19.6955 12.4508C19.7274 12.5128 19.744 12.5841 19.7433 12.6567C19.7426 12.7292 19.7246 12.8 19.6915 12.8611C19.6584 12.9223 19.6101 12.9713 19.5545 13.0026Z" fill="black"/>
</svg>
